<svg xmlns="http://www.w3.org/2000/svg" viewBox="0 0 446.2 60.8" enable-background="new 0 0 446.2 60.8"><g fill="#555555"><path d="m38.8 9.9c-13.4 0-23.4 1.9-29.5 5.6-6.2 3.7-9.3 9.8-9.3 18.1v23.9c0 1.9 1 2.9 2.8 2.9 1.9 0 2.9-1 2.9-2.9v-23.9c0-5.5 1.7-9.6 5-12.2 4.9-3.8 14.4-5.7 28.1-5.7 14.4 0 23.9 2.3 28.1 6.8.5.7 1.2 1 2.1 1 1.9 0 2.9-1 2.9-2.9 0-.7-.3-1.4-.8-1.9-5.4-5.9-16.2-8.8-32.3-8.8"/><path d="m152.9 16.1c-6.3-4.8-17.7-7.2-33.9-7.2-14.8 0-25.7 1.9-32.2 5.5-6.6 3.7-9.9 9.8-9.9 18.2v4.5c0 8.2 3.4 14.3 10.2 18.1 6.7 3.7 17.6 5.6 32.4 5.6 21 0 33.9-4.3 38.3-12.7.3-.4.4-.8.4-1.3 0-1.9-1-2.9-2.9-2.9-1.1 0-1.9.5-2.5 1.5-3.4 6.4-14.6 9.6-33.3 9.6-16 0-26.9-2.3-32.4-6.7-3-2.4-4.5-6.2-4.5-11.2v-1.2h74.6c1.9 0 2.9-1 2.9-2.8v-.5c-.1-7.4-2.5-12.9-7.2-16.5m-33.9-1.5c14.4 0 24.4 1.8 29.8 5.5 3.4 2.3 5.3 5.7 5.5 10.2h-71.7c.4-4.7 2.6-8.3 6.6-10.6 5.7-3.4 15.7-5.1 29.8-5.1"/><path d="m242.8 10.7c-.8 0-1.5.3-2.1 1l-36.5 41.5-37-41.5c-.6-.6-1.3-1-2.1-1-1.9 0-2.9 1-2.9 2.8 0 .7.3 1.4.8 1.9l39 43.9c.6.6 1.3 1 2.1 1s1.5-.3 2.1-1l38.7-44c.4-.6.7-1.2.7-1.9 0-1.8-1-2.7-2.8-2.7"/><path d="m252.9 10.9c-1.8 0-2.8 1-2.8 2.9 0 1.8 1 2.8 2.8 2.8 5.1 0 7.6 2.3 7.6 6.9l-.1 34.4c0 1.9 1 2.9 2.9 2.9 1.8 0 2.8-1 2.8-2.9v-34.3c0-3.9-1.2-7-3.6-9.3-2.3-2.2-5.6-3.4-9.6-3.4"/><path d="m354.7 0c-1.8 0-2.8 1-2.8 3l-.1 14.3c-6-5.6-17.9-8.4-35.2-8.4-14.9 0-25.7 1.9-32.3 5.5-6.6 3.7-9.9 9.8-9.9 18.2v4.5c0 8.2 3.4 14.3 10.2 18.1 6.7 3.7 17.6 5.6 32.4 5.6 16.1 0 27.4-2.4 33.6-7.2 4.7-3.5 7-9.1 7-16.4v-34.1c-.1-2.6-1.6-3.1-2.9-3.1m-38.2 14.6c15.2 0 25.6 2.1 30.8 6.2 3 2.4 4.5 6.2 4.5 11.5v4.9c0 3.4-.4 6-1.2 7.8-1.5 3-4.5 5.4-8.9 7-5.7 2.1-14 3.2-24.7 3.2-16 0-26.9-2.3-32.4-6.7-3-2.4-4.5-6.2-4.5-11.2v-4.5c0-5.6 1.8-9.7 5.5-12.2 5.4-4 15.9-6 30.9-6"/><path d="m439.1 16.1c-6.3-4.8-17.7-7.2-33.9-7.2-14.8 0-25.7 1.9-32.2 5.5-6.6 3.7-9.9 9.8-9.9 18.2v4.5c0 8.2 3.4 14.3 10.2 18.1 6.7 3.7 17.6 5.6 32.4 5.6 21 0 33.9-4.3 38.3-12.7.3-.4.4-.8.4-1.3 0-1.9-1-2.9-2.9-2.9-1.1 0-1.9.5-2.5 1.5-3.4 6.4-14.6 9.6-33.3 9.6-16 0-26.9-2.3-32.4-6.7-3-2.4-4.5-6.2-4.5-11.2v-1.2h74.6c1.9 0 2.9-1 2.9-2.8v-.5c-.1-7.4-2.5-12.9-7.2-16.5m-33.9-1.5c14.4 0 24.4 1.8 29.8 5.5 3.4 2.3 5.3 5.7 5.5 10.2h-71.7c.4-4.7 2.6-8.3 6.6-10.6 5.7-3.4 15.7-5.1 29.8-5.1"/></g></svg>